<?xml version="1.0" encoding="utf-8"?>
<!-- Generator: Adobe Illustrator 23.0.3, SVG Export Plug-In . SVG Version: 6.00 Build 0)  -->
<svg version="1.1" id="Layer_1" xmlns="http://www.w3.org/2000/svg" xmlns:xlink="http://www.w3.org/1999/xlink" x="0px" y="0px"
	 viewBox="0 0 31.29 54.35" style="enable-background:new 0 0 31.29 54.35;" xml:space="preserve">
<style type="text/css">
	.st0{fill:#FFFFFF;}
	.st1{fill:#2F66AF;}
</style>
<g>
	<g>
		<path class="st0" d="M16.02,21.63l-0.01-2.6c0.48-0.01,2.87-0.23,2.87-3.54h2.6C21.48,20.53,17.54,21.63,16.02,21.63z"/>
	</g>
	<g>
		<path class="st0" d="M4.59,26.55C1.63,23.58,0.15,19.9,0.15,15.5c0-4.41,1.48-8.1,4.44-11.06S11.24,0,15.65,0s8.1,1.48,11.06,4.44
			s4.44,6.65,4.44,11.06s-1.48,8.1-4.44,11.06S20.06,31,15.65,31S7.55,29.52,4.59,26.55z M15.67,25.22c2.74,0,4.97-0.93,6.7-2.79
			c1.72-1.86,2.58-4.17,2.58-6.92s-0.86-5.06-2.58-6.92c-1.72-1.86-3.97-2.79-6.74-2.79c-2.74,0-4.97,0.93-6.7,2.79
			s-2.58,4.17-2.58,6.92s0.86,5.06,2.58,6.92S12.9,25.22,15.67,25.22z"/>
	</g>
	<polygon class="st1" points="14.26,55.66 14.26,55.66 14.26,55.66 	"/>
	<path class="st0" d="M18.61,36.13c0,0-1.18,0.34-2.21,0.34c-1.03,0-2.13-0.34-2.13-0.34v18.23l4.34-3.64V36.13z"/>
</g>
</svg>
