<svg id="Layer_1" data-name="Layer 1" xmlns="http://www.w3.org/2000/svg" viewBox="0 0 138 54.55"><defs><style>.cls-1{fill:#c4c4c3;}.cls-2,.cls-4{fill:#fff;}.cls-3{fill:#d48028;}.cls-4{font-size:9.37px;font-family:ArialMT, Arial;}</style></defs><title>FC Full Transparent Logo</title><path class="cls-1" d="M43.66,51.19a1.44,1.44,0,0,0,.2.74,1.36,1.36,0,0,0,1.22.53,2,2,0,0,0,.71-.12.82.82,0,0,0,.62-.8.71.71,0,0,0-.26-.62,2.67,2.67,0,0,0-.84-.32l-.69-.16a2.89,2.89,0,0,1-1-.35,1.11,1.11,0,0,1-.49-1,1.57,1.57,0,0,1,.48-1.18A1.89,1.89,0,0,1,45,47.46a2.32,2.32,0,0,1,1.38.4A1.47,1.47,0,0,1,47,49.15h-.68a1.34,1.34,0,0,0-.22-.65A1.26,1.26,0,0,0,45,48.08a1.2,1.2,0,0,0-.88.27.86.86,0,0,0-.27.62.61.61,0,0,0,.32.57,4.09,4.09,0,0,0,.93.29l.73.17a2.4,2.4,0,0,1,.8.34,1.27,1.27,0,0,1,.49,1.08,1.39,1.39,0,0,1-.62,1.27,2.81,2.81,0,0,1-1.46.38,2.12,2.12,0,0,1-1.51-.51A1.72,1.72,0,0,1,43,51.19Z"/><path class="cls-1" d="M48.6,49h.64v.55a2.6,2.6,0,0,1,.42-.41,1.26,1.26,0,0,1,.73-.22,1.12,1.12,0,0,1,.75.23,1.08,1.08,0,0,1,.29.38,1.31,1.31,0,0,1,.51-.46A1.4,1.4,0,0,1,52.6,49a1.08,1.08,0,0,1,1.06.56,1.88,1.88,0,0,1,.15.82v2.58h-.67V50.22a.61.61,0,0,0-.2-.53.73.73,0,0,0-.47-.15,1,1,0,0,0-.66.26,1.14,1.14,0,0,0-.28.86v2.25h-.66V50.38a1.35,1.35,0,0,0-.09-.57.57.57,0,0,0-.56-.28,1,1,0,0,0-.67.29,1.41,1.41,0,0,0-.3,1v2.06H48.6Z"/><path class="cls-1" d="M57.41,50.56a.37.37,0,0,0,.3-.18.76.76,0,0,0,0-.25.53.53,0,0,0-.24-.49,1.26,1.26,0,0,0-.67-.15.87.87,0,0,0-.73.28.85.85,0,0,0-.15.45h-.61a1.14,1.14,0,0,1,.46-1,1.91,1.91,0,0,1,1-.28A2.14,2.14,0,0,1,58,49.2a.88.88,0,0,1,.42.81v2.23a.39.39,0,0,0,0,.17.22.22,0,0,0,.18.06h.21v.48a1,1,0,0,1-.23,0h-.22a.52.52,0,0,1-.48-.24.89.89,0,0,1-.12-.35,1.67,1.67,0,0,1-.57.45,1.74,1.74,0,0,1-.82.19,1.22,1.22,0,0,1-.88-.33,1.18,1.18,0,0,1,0-1.65,1.64,1.64,0,0,1,.89-.37ZM56,52.32a.77.77,0,0,0,.49.17,1.61,1.61,0,0,0,.67-.16.91.91,0,0,0,.54-.87v-.52a1.31,1.31,0,0,1-.31.13,2.29,2.29,0,0,1-.36.07l-.4,0a1.47,1.47,0,0,0-.53.15.57.57,0,0,0-.3.54A.53.53,0,0,0,56,52.32Z"/><path class="cls-1" d="M60,49h.62v.67a1.51,1.51,0,0,1,.38-.47A.93.93,0,0,1,61.7,49h.06l.15,0v.68H61.7a.94.94,0,0,0-.76.31,1.1,1.1,0,0,0-.27.73v2.23H60Z"/><path class="cls-1" d="M63.16,48h.66V49h.62v.54h-.62V52.1a.27.27,0,0,0,.14.27.67.67,0,0,0,.25,0h.23v.52L64.2,53h-.26a.73.73,0,0,1-.62-.23,1,1,0,0,1-.16-.61V49.57h-.53V49h.53Z"/><path class="cls-1" d="M68,49.14a1.51,1.51,0,0,1,.58.5,1.74,1.74,0,0,1,.26.69,4.22,4.22,0,0,1,.06.85H66.12a1.7,1.7,0,0,0,.28,1,.92.92,0,0,0,.8.36,1,1,0,0,0,.81-.34,1.19,1.19,0,0,0,.24-.46h.64a1.46,1.46,0,0,1-.17.48,1.85,1.85,0,0,1-.32.43,1.57,1.57,0,0,1-.73.39,2.15,2.15,0,0,1-.53.06,1.64,1.64,0,0,1-1.22-.53,2.06,2.06,0,0,1-.5-1.47,2.22,2.22,0,0,1,.51-1.52A1.63,1.63,0,0,1,67.24,49,1.74,1.74,0,0,1,68,49.14Zm.23,1.52a1.85,1.85,0,0,0-.18-.67.93.93,0,0,0-.89-.47,1,1,0,0,0-.74.32,1.18,1.18,0,0,0-.32.82Z"/><path class="cls-1" d="M70.34,49H71v.67a1.45,1.45,0,0,1,.37-.47A1,1,0,0,1,72,49h.06l.14,0v.68H72a.91.91,0,0,0-.75.31,1.1,1.1,0,0,0-.27.73v2.23h-.65Z"/><path class="cls-1" d="M76,47.59h.65v5.32H76Z"/><path class="cls-1" d="M80.56,49.14a1.51,1.51,0,0,1,.58.5,1.74,1.74,0,0,1,.26.69,4.22,4.22,0,0,1,.06.85H78.64a1.62,1.62,0,0,0,.28,1,.92.92,0,0,0,.8.36,1,1,0,0,0,.8-.34,1,1,0,0,0,.24-.46h.64a1.23,1.23,0,0,1-.16.48,2.18,2.18,0,0,1-.32.43,1.57,1.57,0,0,1-.73.39,2.15,2.15,0,0,1-.53.06,1.62,1.62,0,0,1-1.22-.53,2.06,2.06,0,0,1-.5-1.47,2.26,2.26,0,0,1,.5-1.52A1.67,1.67,0,0,1,79.76,49,1.77,1.77,0,0,1,80.56,49.14Zm.23,1.52a1.85,1.85,0,0,0-.18-.67.94.94,0,0,0-.89-.47,1,1,0,0,0-.75.32,1.28,1.28,0,0,0-.32.82Z"/><path class="cls-1" d="M85,49.19a1.64,1.64,0,0,1,.38.37v-.49H86V52.6a2.5,2.5,0,0,1-.22,1.16,1.54,1.54,0,0,1-1.52.79,1.83,1.83,0,0,1-1-.28,1.1,1.1,0,0,1-.48-.88h.66a.83.83,0,0,0,.19.4.94.94,0,0,0,.69.22,1,1,0,0,0,1-.53,3,3,0,0,0,.12-1.11,1.2,1.2,0,0,1-.46.44,1.66,1.66,0,0,1-1.83-.3A2,2,0,0,1,82.58,51a2.23,2.23,0,0,1,.48-1.52A1.45,1.45,0,0,1,84.2,49,1.38,1.38,0,0,1,85,49.19Zm.08.7a1,1,0,0,0-1.68.3,2.42,2.42,0,0,0-.14.9,1.56,1.56,0,0,0,.27,1,.84.84,0,0,0,.71.35,1,1,0,0,0,1-.64,2,2,0,0,0,.16-.83A1.61,1.61,0,0,0,85.07,49.89Z"/><path class="cls-1" d="M89.59,50.56a.34.34,0,0,0,.3-.18.55.55,0,0,0,0-.25.53.53,0,0,0-.24-.49,1.27,1.27,0,0,0-.68-.15.83.83,0,0,0-.72.28.85.85,0,0,0-.15.45h-.61a1.14,1.14,0,0,1,.46-1,1.91,1.91,0,0,1,1-.28,2.17,2.17,0,0,1,1.11.26.88.88,0,0,1,.42.81v2.23a.39.39,0,0,0,0,.17.22.22,0,0,0,.18.06H91v.48a1,1,0,0,1-.23,0h-.22a.55.55,0,0,1-.49-.24A.9.9,0,0,1,90,52.4a1.67,1.67,0,0,1-.57.45,1.74,1.74,0,0,1-.82.19,1.22,1.22,0,0,1-.88-.33,1.18,1.18,0,0,1,0-1.65,1.64,1.64,0,0,1,.89-.37Zm-1.37,1.76a.77.77,0,0,0,.49.17,1.61,1.61,0,0,0,.67-.16.91.91,0,0,0,.54-.87v-.52a1.31,1.31,0,0,1-.31.13,2.41,2.41,0,0,1-.37.07l-.39,0a1.47,1.47,0,0,0-.53.15.57.57,0,0,0-.3.54A.53.53,0,0,0,88.22,52.32Z"/><path class="cls-1" d="M92.21,47.59h.65v5.32h-.65Z"/><path class="cls-1" d="M97,49h.62v.67a1.45,1.45,0,0,1,.37-.47,1,1,0,0,1,.69-.28h.06l.15,0v.68H98.7A.91.91,0,0,0,98,50a1.1,1.1,0,0,0-.27.73v2.23H97Z"/><path class="cls-1" d="M102.43,49.14a1.54,1.54,0,0,1,.59.5,1.73,1.73,0,0,1,.25.69,4.22,4.22,0,0,1,.06.85h-2.82a1.78,1.78,0,0,0,.28,1,.92.92,0,0,0,.8.36,1,1,0,0,0,.81-.34,1.19,1.19,0,0,0,.24-.46h.64a1.46,1.46,0,0,1-.17.48,1.85,1.85,0,0,1-.32.43,1.57,1.57,0,0,1-.73.39,2.09,2.09,0,0,1-.53.06,1.64,1.64,0,0,1-1.22-.53,2.06,2.06,0,0,1-.5-1.47,2.22,2.22,0,0,1,.51-1.52,1.63,1.63,0,0,1,1.31-.58A1.74,1.74,0,0,1,102.43,49.14Zm.23,1.52a1.52,1.52,0,0,0-.18-.67.93.93,0,0,0-.89-.47,1,1,0,0,0-.74.32,1.23,1.23,0,0,0-.32.82Z"/><path class="cls-1" d="M105.1,51.69a.92.92,0,0,0,.17.5,1,1,0,0,0,.87.32,1.28,1.28,0,0,0,.65-.16.53.53,0,0,0,.28-.49.43.43,0,0,0-.23-.38,2.79,2.79,0,0,0-.56-.18l-.53-.13a2.34,2.34,0,0,1-.74-.28.81.81,0,0,1-.43-.73,1.15,1.15,0,0,1,.4-.89,1.66,1.66,0,0,1,1.08-.34,1.48,1.48,0,0,1,1.28.52,1,1,0,0,1,.24.7H107a.74.74,0,0,0-.16-.4,1,1,0,0,0-.8-.26,1,1,0,0,0-.57.14.46.46,0,0,0-.2.38.46.46,0,0,0,.26.4,1.65,1.65,0,0,0,.44.16l.43.1a3.84,3.84,0,0,1,1,.33.87.87,0,0,1,.38.79,1.2,1.2,0,0,1-.39.89,1.73,1.73,0,0,1-1.22.38,1.66,1.66,0,0,1-1.24-.39,1.54,1.54,0,0,1-.39-1Z"/><path class="cls-1" d="M111.37,49.14a1.51,1.51,0,0,1,.58.5,1.74,1.74,0,0,1,.26.69,4.22,4.22,0,0,1,.06.85h-2.82a1.7,1.7,0,0,0,.28,1,.92.92,0,0,0,.8.36,1,1,0,0,0,.81-.34,1.19,1.19,0,0,0,.24-.46h.64a1.46,1.46,0,0,1-.17.48,1.85,1.85,0,0,1-.32.43A1.57,1.57,0,0,1,111,53a2.15,2.15,0,0,1-.53.06,1.64,1.64,0,0,1-1.22-.53,2.06,2.06,0,0,1-.5-1.47,2.22,2.22,0,0,1,.51-1.52,1.63,1.63,0,0,1,1.31-.58A1.74,1.74,0,0,1,111.37,49.14Zm.23,1.52a1.85,1.85,0,0,0-.18-.67.93.93,0,0,0-.89-.47,1,1,0,0,0-.74.32,1.18,1.18,0,0,0-.32.82Z"/><path class="cls-1" d="M115.73,50.56a.34.34,0,0,0,.3-.18.57.57,0,0,0,0-.25.54.54,0,0,0-.23-.49,1.29,1.29,0,0,0-.68-.15.83.83,0,0,0-.72.28.94.94,0,0,0-.16.45h-.61a1.14,1.14,0,0,1,.47-1,1.87,1.87,0,0,1,1-.28,2.12,2.12,0,0,1,1.11.26.88.88,0,0,1,.43.81v2.23a.29.29,0,0,0,0,.17.19.19,0,0,0,.17.06h.22v.48a.93.93,0,0,1-.24,0h-.21a.53.53,0,0,1-.49-.24.9.9,0,0,1-.11-.35,1.89,1.89,0,0,1-.57.45,1.78,1.78,0,0,1-.83.19,1.22,1.22,0,0,1-.88-.33,1.06,1.06,0,0,1-.34-.82,1,1,0,0,1,.34-.83,1.61,1.61,0,0,1,.88-.37Zm-1.37,1.76a.75.75,0,0,0,.49.17,1.56,1.56,0,0,0,.66-.16.91.91,0,0,0,.54-.87v-.52a1.42,1.42,0,0,1-.3.13,2.66,2.66,0,0,1-.37.07l-.39,0a1.47,1.47,0,0,0-.54.15.57.57,0,0,0-.3.54A.51.51,0,0,0,114.36,52.32Z"/><path class="cls-1" d="M118.35,49H119v.67a1.45,1.45,0,0,1,.37-.47A.94.94,0,0,1,120,49h.06l.15,0v.68H120a.94.94,0,0,0-.76.31,1.14,1.14,0,0,0-.26.73v2.23h-.65Z"/><path class="cls-1" d="M123.91,49.24a1.52,1.52,0,0,1,.5,1.1h-.64a1.18,1.18,0,0,0-.26-.6.83.83,0,0,0-.66-.24.92.92,0,0,0-.89.61,2.33,2.33,0,0,0-.18,1,1.85,1.85,0,0,0,.25,1,.83.83,0,0,0,.77.4.85.85,0,0,0,.65-.25,1.4,1.4,0,0,0,.32-.67h.64a1.76,1.76,0,0,1-.55,1.13,1.73,1.73,0,0,1-1.11.35,1.48,1.48,0,0,1-1.21-.55,2.15,2.15,0,0,1-.45-1.39,2.35,2.35,0,0,1,.49-1.59,1.62,1.62,0,0,1,1.27-.57A1.69,1.69,0,0,1,123.91,49.24Z"/><path class="cls-1" d="M125.61,47.58h.66v2a1.74,1.74,0,0,1,.41-.41,1.39,1.39,0,0,1,.79-.21,1.16,1.16,0,0,1,1.14.59,2,2,0,0,1,.16.89v2.49h-.67V50.47a1.42,1.42,0,0,0-.1-.63.7.7,0,0,0-.67-.32,1.16,1.16,0,0,0-.74.28,1.39,1.39,0,0,0-.32,1.05v2.06h-.66Z"/><path class="cls-1" d="M130.45,52.12h.75v.79h-.75Z"/><path class="cls-2" d="M24.77,32.48c-2.72.6-7.91,1.28-7.91,5,0,2.43,1.23,3.36,3.49,3.36,1.53,0,4.42-1.19,4.42-3.44Zm0-4.29c0-2.21-1.74-3.7-4.38-3.7-2,0-3.7.21-3.7,2.55,0,.64.26,1.27.26,1.74s-.13.81-.94.81-2-.64-2-1.4c0-2,2.43-4.94,7.15-4.81,2.64,0,6.72.77,6.72,4.38v8.8c0,1.45-.38,4,1.83,4,.17,0,.55-.08.72-.08s.55,0,.55.29c0,.9-1.87,1.07-2.46,1.07a3.28,3.28,0,0,1-3.32-2.17,10.15,10.15,0,0,1-6.51,2.46c-2.76,0-4.59-1-4.59-4,0-2.25.72-4.93,10.67-6.59Z"/><path class="cls-2" d="M33.46,28.48c0-3.4,2.64-5.1,5.75-5.1.72,0,3.65.34,4.16,1a5.78,5.78,0,0,1,.22,2.08c0,1.15.17,1.66-.47,1.66-.43,0-.81-3.7-4.68-3.7a2.71,2.71,0,0,0-3,2.72c0,1.41,1.11,2.3,5.57,4.09,2.43,1,3.53,2.34,3.53,5.06a5.81,5.81,0,0,1-5.74,5.82c-3,0-3.74-1.23-4.76-1.23s-.94,0-.94-3.4c0-.72-.12-2.09.51-2.09.94,0,.47,5.62,5.07,5.62a3.48,3.48,0,0,0,3.78-3.49c0-2.25-2.17-2.93-3.87-3.74C36.31,32.61,33.46,31.5,33.46,28.48Z"/><path class="cls-2" d="M49.06,25.68c-2,0-2.3,0-2.3-.3s1.07-1.06,3.23-3.45c.86-1,1.28-1.95,1.62-1.95.6,0,.55.89.55,3.95h4.68a2.63,2.63,0,0,0,1.66-.72.33.33,0,0,1,.3.34,1.44,1.44,0,0,1-.26.6l-.85,1.53H52.16V38.05c.09,1.75,1.28,2.56,3,2.56,2.26,0,2.89-1,3.62-1,.17,0,.34,0,.34.38,0,.64-2.3,2.08-5.28,2.08-2,0-4.76-.55-4.76-4.93Z"/><path class="cls-3" d="M73.56,27.84c-1-2.21-2.43-4-5-4-3.61,0-6,2.25-6,8.18,0,4.9,2.21,8.19,6,8.19,2.73,0,4.2-1.52,5.75-4l1.77.85C74.48,39.82,72.23,42,68.58,42c-5.38,0-8.26-4.17-8.26-10,0-6.6,3.32-9.95,8.26-9.95,3.62,0,5.86,2,7,5.2Z"/><path class="cls-3" d="M90.55,30.79c-8.77,1.92-10,3.72-10,6.15A3.14,3.14,0,0,0,84,40.23a9.92,9.92,0,0,0,6.52-3.17Zm.37,10.84-.29-2.33c-2.29,1.81-4,2.7-7,2.7s-5.27-1.85-5.27-5c0-5.23,4.27-6.19,12.27-8V27.69c0-2.54-1.1-3.83-4.38-3.83-2.29,0-4.17,1.25-5.57,3.46l-1.48-.88a7.46,7.46,0,0,1,7.12-4.35c4.35,0,6.41,1.77,6.41,6v10a21.56,21.56,0,0,0,.3,3.51Z"/><path class="cls-3" d="M98.4,37c1.81,2.58,3.43,3.25,5.94,3.25s4.28-1.59,4.28-3.65c0-5.57-11.28-2.44-11.28-9.26,0-3.61,2.83-5.23,6.08-5.23a7.09,7.09,0,0,1,6.6,3.46l-1.7,1.18c-1.29-1.77-2.69-2.87-5-2.87-2.13,0-3.79,1-3.79,3.35,0,4.69,11.28,1.92,11.28,9.37,0,3.42-3.17,5.42-6.64,5.42a8.53,8.53,0,0,1-7.41-3.88Z"/><path class="cls-3" d="M126.9,30.35c-.44-4-2.18-6.45-5.53-6.49-3.91,0-5.57,3.94-5.6,6.49Zm-11.13,1.77c0,4.35,1.8,8.11,6.15,8.11,2.47,0,3.69-.85,5.61-3.87l1.8,1c-2.06,3.4-3.94,4.69-7.59,4.69-5,0-8.19-3.21-8.19-10,0-5.93,3-9.95,7.89-9.95,5.2,0,7.67,4.09,7.67,10Z"/><path class="cls-2" d="M16,0C12,0,8.1,4,6.8,6.07a21.93,21.93,0,0,0-3.14,8.78H7.58A34.89,34.89,0,0,1,8,8.68c.51-2.61,2.55-5.84,5.56-5.84,3.57,0,3.06,2.38,3.86,2.38.62,0,.85-2.95.85-4S16.72,0,16,0ZM7.59,37.6V18.74H3.45V38.05c0,2.73-2.72,2-2.72,3.24,0,.45.62.34.9.34h8.79c.46,0,1.2.17,1.2-.51C11.62,39.87,7.59,41.23,7.59,37.6Z"/><path class="cls-3" d="M1,15.87H15a24.05,24.05,0,0,1-4.28-6.22H12a28.75,28.75,0,0,0,8.27,6.59v1.12A28.58,28.58,0,0,0,12,24H10.68A24.1,24.1,0,0,1,15,17.72H1Z"/><text class="cls-4" transform="translate(130.39 17.75)">®</text></svg>